<?xml version="1.0" encoding="UTF-8" ?>
<!DOCTYPE svg PUBLIC "-//W3C//DTD SVG 1.1//EN" "http://www.w3.org/Graphics/SVG/1.1/DTD/svg11.dtd">
<svg width="760pt" height="603pt" viewBox="0 0 760 603" version="1.1" xmlns="http://www.w3.org/2000/svg">
<path fill="#000000" opacity="1.00" d=" M 315.07 48.06 C 326.25 23.64 353.30 8.11 379.94 9.94 C 421.54 10.15 463.15 9.82 504.75 10.07 C 537.90 11.41 566.20 40.43 568.01 73.26 C 568.19 85.84 567.86 98.43 568.01 111.01 C 604.00 111.02 639.99 110.96 675.99 111.01 C 676.04 124.33 676.03 137.66 675.98 150.98 C 646.45 151.34 616.90 150.42 587.39 151.35 C 601.14 161.64 613.83 173.36 624.45 186.90 C 643.55 183.91 660.76 173.61 679.69 169.99 C 686.22 188.08 695.77 205.10 700.99 223.62 C 694.80 225.28 688.54 226.88 682.84 229.87 C 707.04 262.88 712.99 306.66 704.09 346.06 C 719.57 345.26 734.94 341.27 750.55 343.15 C 758.85 362.08 751.75 386.52 734.98 399.01 C 712.27 416.65 683.71 423.74 655.89 428.42 C 685.46 455.75 692.46 502.72 670.91 537.29 C 646.15 521.21 623.05 502.61 601.08 482.90 C 535.48 523.41 455.08 531.02 379.73 527.27 C 321.37 522.48 261.32 508.17 213.94 472.06 C 179.44 446.67 157.07 406.41 151.66 364.11 C 111.14 368.34 68.63 369.19 30.18 353.80 C 20.23 349.23 7.61 342.36 8.66 329.47 C 20.15 319.59 36.30 319.83 50.46 317.50 C 76.57 313.27 103.09 313.41 129.26 309.75 C 99.41 284.81 61.81 268.65 35.47 239.46 C 27.08 227.05 45.61 220.75 55.31 221.11 C 86.08 221.58 115.12 234.91 141.99 248.88 C 142.09 241.31 142.35 233.75 142.70 226.19 C 121.83 209.42 114.54 176.27 131.02 154.06 C 133.88 147.93 143.81 144.37 139.54 136.52 C 126.50 101.62 132.95 58.18 162.33 33.43 C 175.86 67.47 201.07 94.83 227.88 119.06 C 226.44 93.66 236.22 63.36 257.83 49.05 C 267.66 76.81 286.88 100.08 307.93 120.18 C 309.84 96.26 302.87 70.13 315.07 48.06 M 330.00 73.02 C 329.93 82.34 329.93 91.66 330.01 100.99 C 329.93 110.65 329.95 120.32 330.02 129.99 C 402.01 130.01 474.00 130.01 545.98 129.99 C 546.05 120.32 546.04 110.65 545.98 100.98 C 546.04 91.64 546.04 82.31 546.08 72.97 C 544.98 50.01 522.64 30.70 499.96 31.92 C 458.34 32.08 416.72 31.97 375.10 31.97 C 352.51 30.78 331.54 50.77 330.00 73.02 M 158.05 71.70 C 149.06 94.82 155.48 120.42 166.24 141.76 C 187.59 181.63 221.36 212.97 256.99 240.01 C 213.14 229.26 175.01 200.14 148.93 163.74 C 132.01 180.68 144.58 206.80 160.82 219.19 C 197.17 250.48 241.95 269.32 286.06 286.95 C 242.45 285.34 198.09 273.44 162.11 247.96 C 160.59 272.71 170.86 299.00 191.97 313.06 C 223.34 333.82 261.91 337.38 298.50 338.85 C 257.01 342.84 208.79 345.26 172.88 319.83 C 170.98 341.55 170.86 364.09 177.88 384.98 C 185.63 413.78 204.62 438.96 228.41 456.59 C 290.31 501.66 371.04 510.24 445.40 506.40 C 493.94 501.67 543.81 493.48 585.95 467.28 C 581.09 462.48 576.71 457.22 572.24 452.07 C 563.11 440.40 555.11 427.72 551.84 413.10 C 543.48 419.15 533.51 421.89 524.43 426.42 C 492.03 433.08 456.78 420.90 435.99 395.01 C 394.68 346.79 396.56 268.01 440.11 221.82 C 439.16 220.14 437.05 220.29 435.43 219.84 C 428.52 217.66 421.64 215.39 414.86 212.85 C 420.75 195.09 426.65 177.31 433.31 159.82 C 476.87 173.48 520.15 188.30 563.55 202.53 C 574.40 208.37 585.59 199.98 596.06 197.39 C 598.42 196.86 600.77 196.30 603.13 195.70 C 590.70 178.33 572.21 166.19 554.69 154.40 C 550.46 150.83 544.67 152.31 539.63 152.18 C 532.67 151.25 525.60 152.33 518.63 152.34 C 500.05 151.24 481.33 152.25 462.71 152.25 C 450.59 151.80 438.45 151.69 426.34 152.33 C 396.33 151.74 366.27 151.82 336.27 152.25 C 333.00 152.08 329.67 151.89 326.41 152.08 C 310.22 150.32 297.91 162.94 283.99 168.99 C 290.00 174.22 295.56 179.95 300.94 185.82 L 301.57 185.45 C 303.80 187.80 305.27 191.68 308.94 191.88 C 310.73 196.26 314.61 199.18 317.89 202.40 C 319.44 204.35 321.03 206.27 322.72 208.12 C 324.96 210.99 327.22 213.87 329.42 216.79 L 330.22 216.68 C 354.64 247.62 372.83 286.33 371.14 326.39 C 367.73 302.14 358.13 278.95 344.04 258.95 C 305.16 202.36 244.60 166.91 194.77 121.23 C 180.13 106.91 164.59 91.65 158.05 71.70 M 267.26 154.01 C 276.54 150.66 284.47 143.97 293.18 139.29 C 276.44 125.25 260.64 108.41 252.88 87.64 C 245.39 109.08 244.91 140.87 267.26 154.01 M 457.39 235.86 C 426.49 266.10 419.78 316.14 436.79 355.22 C 449.17 387.90 485.82 416.63 521.30 403.08 C 545.38 398.44 560.49 375.71 572.21 355.93 C 575.93 361.26 579.51 366.69 583.09 372.12 C 586.74 370.82 590.34 369.35 594.01 368.06 C 596.78 367.27 599.51 366.32 602.16 365.18 C 627.40 356.17 654.26 353.20 680.49 348.46 C 691.98 311.44 687.24 266.76 660.64 237.11 C 639.41 241.89 619.61 251.49 598.36 256.36 C 587.55 259.55 577.05 267.22 565.20 262.95 C 533.53 251.13 501.04 241.81 469.08 230.83 C 464.55 229.00 459.46 231.81 457.39 235.86 M 634.39 374.37 C 613.21 378.75 591.42 384.61 573.87 397.76 C 563.81 404.85 571.28 418.92 575.87 427.16 C 597.81 461.57 630.89 486.90 662.91 511.37 C 669.78 492.02 667.38 468.33 653.58 452.42 C 638.41 434.13 614.96 427.39 594.65 416.71 C 635.15 414.60 677.90 411.83 714.58 392.59 C 725.56 385.48 738.16 374.63 736.94 360.17 C 702.49 362.69 668.25 367.51 634.39 374.37 Z" />
<path fill="#ed7c31" opacity="1.00" d=" M 330.00 73.02 C 331.54 50.77 352.51 30.78 375.10 31.97 C 416.72 31.97 458.34 32.08 499.96 31.92 C 522.64 30.70 544.98 50.01 546.08 72.97 C 540.39 67.71 534.80 62.31 528.40 57.93 C 530.93 48.48 520.69 44.62 513.42 43.24 C 499.30 40.68 482.75 41.00 471.64 51.26 C 438.14 50.80 404.64 50.98 371.15 51.04 C 354.70 51.59 340.93 61.60 330.00 73.02 Z" />
<path fill="#ffffff" opacity="1.00" d=" M 471.64 51.26 C 482.75 41.00 499.30 40.68 513.42 43.24 C 520.69 44.62 530.93 48.48 528.40 57.93 C 513.06 68.61 491.11 69.05 474.85 60.13 C 471.79 58.41 472.63 54.02 471.64 51.26 Z" />
<path fill="#d6562b" opacity="1.00" d=" M 330.00 73.02 C 340.93 61.60 354.70 51.59 371.15 51.04 C 404.64 50.98 438.14 50.80 471.64 51.26 C 472.63 54.02 471.79 58.41 474.85 60.13 C 491.11 69.05 513.06 68.61 528.40 57.93 C 534.80 62.31 540.39 67.71 546.08 72.97 C 546.04 82.31 546.04 91.64 545.98 100.98 C 473.99 101.02 402.00 101.00 330.01 100.99 C 329.93 91.66 329.93 82.34 330.00 73.02 Z" />
<path fill="#c7b29e" opacity="1.00" d=" M 158.05 71.70 C 164.59 91.65 180.13 106.91 194.77 121.23 C 244.60 166.91 305.16 202.36 344.04 258.95 C 358.13 278.95 367.73 302.14 371.14 326.39 C 372.83 286.33 354.64 247.62 330.22 216.68 C 338.37 215.81 349.62 213.61 351.35 204.14 C 341.83 198.82 331.25 202.90 322.72 208.12 C 321.03 206.27 319.44 204.35 317.89 202.40 C 320.08 199.22 321.67 195.66 322.20 191.81 C 317.77 191.76 313.36 191.88 308.94 191.88 C 305.27 191.68 303.80 187.80 301.57 185.45 C 340.03 165.49 383.44 156.36 426.34 152.33 C 438.45 151.69 450.59 151.80 462.71 152.25 C 510.35 154.59 556.66 170.66 596.06 197.39 C 585.59 199.98 574.40 208.37 563.55 202.53 C 520.15 188.30 476.87 173.48 433.31 159.82 C 426.65 177.31 420.75 195.09 414.86 212.85 C 421.64 215.39 428.52 217.66 435.43 219.84 C 388.17 273.18 386.66 362.83 432.81 417.19 C 454.38 444.72 498.02 450.54 524.43 426.42 C 533.51 421.89 543.48 419.15 551.84 413.10 C 555.11 427.72 563.11 440.40 572.24 452.07 C 551.49 464.43 527.81 471.28 504.09 475.20 C 464.43 485.44 436.30 440.66 397.12 445.44 C 385.83 447.89 376.41 456.24 364.54 456.38 C 346.55 457.22 332.73 443.30 316.19 438.55 C 304.64 433.08 294.83 446.35 283.24 442.10 C 271.18 436.02 265.24 422.53 253.64 415.84 C 243.51 412.27 233.92 418.73 223.81 417.81 C 206.21 410.57 192.25 397.07 177.88 384.98 C 170.86 364.09 170.98 341.55 172.88 319.83 C 208.79 345.26 257.01 342.84 298.50 338.85 C 261.91 337.38 223.34 333.82 191.97 313.06 C 170.86 299.00 160.59 272.71 162.11 247.96 C 198.09 273.44 242.45 285.34 286.06 286.95 C 241.95 269.32 197.17 250.48 160.82 219.19 C 144.58 206.80 132.01 180.68 148.93 163.74 C 175.01 200.14 213.14 229.26 256.99 240.01 C 221.36 212.97 187.59 181.63 166.24 141.76 C 155.48 120.42 149.06 94.82 158.05 71.70 M 344.12 182.31 C 337.05 189.87 350.15 195.54 356.50 194.68 C 367.47 194.56 386.84 193.08 387.65 178.64 C 374.80 170.06 355.50 172.68 344.12 182.31 M 381.79 194.41 C 376.86 194.21 369.10 200.74 375.29 204.72 C 383.41 208.68 400.77 211.19 404.11 200.15 C 400.02 192.29 388.98 194.00 381.79 194.41 M 372.08 393.04 C 365.42 395.17 367.43 405.45 373.71 406.71 C 386.90 409.28 399.34 402.07 408.99 393.88 C 408.98 393.17 408.95 391.75 408.94 391.04 C 396.78 391.76 383.80 388.91 372.08 393.04 M 418.85 405.21 C 406.17 413.07 384.36 417.29 382.07 434.26 C 403.09 446.46 421.27 425.87 418.85 405.21 Z" />
<path fill="#c7b29e" opacity="1.00" d=" M 267.26 154.01 C 244.91 140.87 245.39 109.08 252.88 87.64 C 260.64 108.41 276.44 125.25 293.18 139.29 C 284.47 143.97 276.54 150.66 267.26 154.01 Z" />
<path fill="#b55232" opacity="1.00" d=" M 330.01 100.99 C 402.00 101.00 473.99 101.02 545.98 100.98 C 546.04 110.65 546.05 120.32 545.98 129.99 C 474.00 130.01 402.01 130.01 330.02 129.99 C 329.95 120.32 329.93 110.65 330.01 100.99 Z" />
<path fill="#e5d3bd" opacity="1.00" d=" M 283.99 168.99 C 297.91 162.94 310.22 150.32 326.41 152.08 C 321.75 153.62 317.37 155.87 312.99 158.06 C 320.89 156.73 328.52 154.22 336.27 152.25 C 366.27 151.82 396.33 151.74 426.34 152.33 C 383.44 156.36 340.03 165.49 301.57 185.45 L 300.94 185.82 C 295.56 179.95 290.00 174.22 283.99 168.99 Z" />
<path fill="#faf7f3" opacity="1.00" d=" M 326.41 152.08 C 329.67 151.89 333.00 152.08 336.27 152.25 C 328.52 154.22 320.89 156.73 312.99 158.06 C 317.37 155.87 321.75 153.62 326.41 152.08 Z" />
<path fill="#e5d3bd" opacity="1.00" d=" M 462.71 152.25 C 481.33 152.25 500.05 151.24 518.63 152.34 C 537.93 156.84 556.01 165.06 574.11 172.92 C 563.27 164.98 551.51 158.39 539.63 152.18 C 544.67 152.31 550.46 150.83 554.69 154.40 C 572.21 166.19 590.70 178.33 603.13 195.70 C 600.77 196.30 598.42 196.86 596.06 197.39 C 556.66 170.66 510.35 154.59 462.71 152.25 Z" />
<path fill="#ffffff" opacity="1.00" d=" M 518.63 152.34 C 525.60 152.33 532.67 151.25 539.63 152.18 C 551.51 158.39 563.27 164.98 574.11 172.92 C 556.01 165.06 537.93 156.84 518.63 152.34 Z" />
<path fill="#937963" opacity="1.00" d=" M 344.12 182.31 C 355.50 172.68 374.80 170.06 387.65 178.64 C 386.84 193.08 367.47 194.56 356.50 194.68 C 350.15 195.54 337.05 189.87 344.12 182.31 Z" />
<path fill="#937963" opacity="1.00" d=" M 308.94 191.88 C 313.36 191.88 317.77 191.76 322.20 191.81 C 321.67 195.66 320.08 199.22 317.89 202.40 C 314.61 199.18 310.73 196.26 308.94 191.88 Z" />
<path fill="#937963" opacity="1.00" d=" M 381.79 194.41 C 388.98 194.00 400.02 192.29 404.11 200.15 C 400.77 211.19 383.41 208.68 375.29 204.72 C 369.10 200.74 376.86 194.21 381.79 194.41 Z" />
<path fill="#937963" opacity="1.00" d=" M 322.72 208.12 C 331.25 202.90 341.83 198.82 351.35 204.14 C 349.62 213.61 338.37 215.81 330.22 216.68 L 329.42 216.79 C 327.22 213.87 324.96 210.99 322.72 208.12 Z" />
<path fill="#937963" opacity="1.00" d=" M 435.43 219.84 C 437.05 220.29 439.16 220.14 440.11 221.82 C 396.56 268.01 394.68 346.79 435.99 395.01 C 456.78 420.90 492.03 433.08 524.43 426.42 C 498.02 450.54 454.38 444.72 432.81 417.19 C 386.66 362.83 388.17 273.18 435.43 219.84 Z" />
<path fill="#ffffff" opacity="1.00" d=" M 457.39 235.86 C 459.46 231.81 464.55 229.00 469.08 230.83 C 501.04 241.81 533.53 251.13 565.20 262.95 C 577.05 267.22 587.55 259.55 598.36 256.36 C 619.61 251.49 639.41 241.89 660.64 237.11 C 687.24 266.76 691.98 311.44 680.49 348.46 C 654.26 353.20 627.40 356.17 602.16 365.18 C 600.49 364.43 598.81 363.68 597.14 362.95 C 596.09 364.65 595.05 366.35 594.01 368.06 C 590.34 369.35 586.74 370.82 583.09 372.12 C 579.51 366.69 575.93 361.26 572.21 355.93 C 560.49 375.71 545.38 398.44 521.30 403.08 C 493.50 399.89 469.94 380.02 457.20 355.80 C 436.90 318.87 439.29 273.14 457.39 235.86 M 536.54 283.19 C 519.24 297.67 519.31 328.72 535.26 344.19 C 552.96 352.87 559.55 327.18 558.88 314.28 C 554.57 313.22 548.95 314.06 545.34 312.09 C 546.71 305.78 558.21 302.00 555.33 293.86 C 552.66 286.50 545.01 278.35 536.54 283.19 M 648.32 337.73 C 661.93 350.90 669.06 324.15 668.01 313.45 C 664.58 312.51 661.10 311.65 657.67 310.77 C 659.88 306.69 662.97 303.22 665.92 299.68 C 664.84 293.85 662.13 288.52 657.47 284.70 C 636.24 289.15 638.63 322.31 648.32 337.73 Z" />
<path fill="#d0d2d3" opacity="1.00" d=" M 436.79 355.22 C 419.78 316.14 426.49 266.10 457.39 235.86 C 439.29 273.14 436.90 318.87 457.20 355.80 C 469.94 380.02 493.50 399.89 521.30 403.08 C 485.82 416.63 449.17 387.90 436.79 355.22 Z" />
<path fill="#000000" opacity="1.00" d=" M 536.54 283.19 C 545.01 278.35 552.66 286.50 555.33 293.86 C 558.21 302.00 546.71 305.78 545.34 312.09 C 548.95 314.06 554.57 313.22 558.88 314.28 C 559.55 327.18 552.96 352.87 535.26 344.19 C 519.31 328.72 519.24 297.67 536.54 283.19 Z" />
<path fill="#000000" opacity="1.00" d=" M 648.32 337.73 C 638.63 322.31 636.24 289.15 657.47 284.70 C 662.13 288.52 664.84 293.85 665.92 299.68 C 662.97 303.22 659.88 306.69 657.67 310.77 C 661.10 311.65 664.58 312.51 668.01 313.45 C 669.06 324.15 661.93 350.90 648.32 337.73 Z" />
<path fill="#faaf40" opacity="1.00" d=" M 634.39 374.37 C 668.25 367.51 702.49 362.69 736.94 360.17 C 738.16 374.63 725.56 385.48 714.58 392.59 C 677.90 411.83 635.15 414.60 594.65 416.71 C 614.96 427.39 638.41 434.13 653.58 452.42 C 667.38 468.33 669.78 492.02 662.91 511.37 C 630.89 486.90 597.81 461.57 575.87 427.16 C 571.28 418.92 563.81 404.85 573.87 397.76 C 591.42 384.61 613.21 378.75 634.39 374.37 Z" />
<path fill="#b0b1b2" opacity="1.00" d=" M 597.14 362.95 C 598.81 363.68 600.49 364.43 602.16 365.18 C 599.51 366.32 596.78 367.27 594.01 368.06 C 595.05 366.35 596.09 364.65 597.14 362.95 Z" />
<path fill="#937963" opacity="1.00" d=" M 177.88 384.98 C 192.25 397.07 206.21 410.57 223.81 417.81 C 233.92 418.73 243.51 412.27 253.64 415.84 C 265.24 422.53 271.18 436.02 283.24 442.10 C 294.83 446.35 304.64 433.08 316.19 438.55 C 332.73 443.30 346.55 457.22 364.54 456.38 C 376.41 456.24 385.83 447.89 397.12 445.44 C 436.30 440.66 464.43 485.44 504.09 475.20 C 527.81 471.28 551.49 464.43 572.24 452.07 C 576.71 457.22 581.09 462.48 585.95 467.28 C 543.81 493.48 493.94 501.67 445.40 506.40 C 371.04 510.24 290.31 501.66 228.41 456.59 C 204.62 438.96 185.63 413.78 177.88 384.98 Z" />
<path fill="#937963" opacity="1.00" d=" M 372.08 393.04 C 383.80 388.91 396.78 391.76 408.94 391.04 C 408.95 391.75 408.98 393.17 408.99 393.88 C 399.34 402.07 386.90 409.28 373.71 406.71 C 367.43 405.45 365.42 395.17 372.08 393.04 Z" />
<path fill="#937963" opacity="1.00" d=" M 418.85 405.21 C 421.27 425.87 403.09 446.46 382.07 434.26 C 384.36 417.29 406.17 413.07 418.85 405.21 Z" />
</svg>
